<?xml version="1.0" encoding="UTF-8" standalone="no"?>
<!DOCTYPE svg PUBLIC "-//W3C//DTD SVG 1.1//EN"
 "http://www.w3.org/Graphics/SVG/1.1/DTD/svg11.dtd">
<!-- Generated by graphviz version 2.40.1 (20161225.0304)
 -->
<!-- Title: dependencies Pages: 1 -->
<svg width="689pt" height="284pt"
 viewBox="0.00 0.00 689.00 284.00" xmlns="http://www.w3.org/2000/svg" xmlns:xlink="http://www.w3.org/1999/xlink">
<g id="graph0" class="graph" transform="scale(1 1) rotate(0) translate(4 280)">
<title>dependencies</title>
<polygon fill="#ffffff" stroke="transparent" points="-4,4 -4,-280 685,-280 685,4 -4,4"/>
<text text-anchor="start" x="319.5091" y="-42.4" font-family="sans-serif" font-weight="bold" font-size="14.00" fill="#000000">Legend</text>
<polygon fill="#ffffb3" stroke="transparent" points="106.5,-10 106.5,-30 126.5,-30 126.5,-10 106.5,-10"/>
<text text-anchor="start" x="130.129" y="-15.4" font-family="sans-serif" font-size="14.00" fill="#000000"> &#160;Declarations</text>
<polygon fill="#8dd3c7" stroke="transparent" points="219.5,-10 219.5,-30 239.5,-30 239.5,-10 219.5,-10"/>
<text text-anchor="start" x="243.2251" y="-15.4" font-family="sans-serif" font-size="14.00" fill="#000000"> &#160;Module</text>
<polygon fill="#80b1d3" stroke="transparent" points="305.5,-10 305.5,-30 325.5,-30 325.5,-10 305.5,-10"/>
<text text-anchor="start" x="329.2812" y="-15.4" font-family="sans-serif" font-size="14.00" fill="#000000"> &#160;Bootstrap</text>
<polygon fill="#fdb462" stroke="transparent" points="402.5,-10 402.5,-30 422.5,-30 422.5,-10 402.5,-10"/>
<text text-anchor="start" x="426.1732" y="-15.4" font-family="sans-serif" font-size="14.00" fill="#000000"> &#160;Providers</text>
<polygon fill="#fb8072" stroke="transparent" points="498.5,-10 498.5,-30 518.5,-30 518.5,-10 498.5,-10"/>
<text text-anchor="start" x="522.2258" y="-15.4" font-family="sans-serif" font-size="14.00" fill="#000000"> &#160;Exports</text>
<g id="clust1" class="cluster">
<title>cluster_SharedModule</title>
<polygon fill="none" stroke="#000000" stroke-dasharray="1,5" points="8,-70 8,-268 673,-268 673,-70 8,-70"/>
</g>
<g id="clust2" class="cluster">
<title>cluster_SharedModule_declarations</title>
<polygon fill="none" stroke="#000000" points="162,-78 162,-130 656,-130 656,-78 162,-78"/>
</g>
<g id="clust7" class="cluster">
<title>cluster_SharedModule_imports</title>
<polygon fill="none" stroke="#000000" points="20,-78 20,-130 154,-130 154,-78 20,-78"/>
</g>
<g id="clust8" class="cluster">
<title>cluster_SharedModule_exports</title>
<polygon fill="none" stroke="#000000" points="16,-208 16,-260 665,-260 665,-208 16,-208"/>
</g>
<!-- AddRowComponent -->
<g id="node1" class="node">
<title>AddRowComponent</title>
<polygon fill="#ffffb3" stroke="#000000" points="647.8823,-122 516.1177,-122 516.1177,-86 647.8823,-86 647.8823,-122"/>
<text text-anchor="middle" x="582" y="-99.8" font-family="Times,serif" font-size="14.00" fill="#000000">AddRowComponent</text>
</g>
<!-- SharedModule -->
<g id="node5" class="node">
<title>SharedModule</title>
<polygon fill="#8dd3c7" stroke="#000000" points="370.4231,-187 367.4231,-191 346.4231,-191 343.4231,-187 271.5769,-187 271.5769,-151 370.4231,-151 370.4231,-187"/>
<text text-anchor="middle" x="321" y="-164.8" font-family="Times,serif" font-size="14.00" fill="#000000">SharedModule</text>
</g>
<!-- AddRowComponent&#45;&gt;SharedModule -->
<g id="edge1" class="edge">
<title>AddRowComponent&#45;&gt;SharedModule</title>
<path fill="none" stroke="#000000" d="M605.7304,-122.2667C605.7304,-140.5552 605.7304,-166 605.7304,-166 605.7304,-166 380.2712,-166 380.2712,-166"/>
<polygon fill="#000000" stroke="#000000" points="380.2712,-162.5001 370.2712,-166 380.2712,-169.5001 380.2712,-162.5001"/>
</g>
<!-- StateDirective -->
<g id="node2" class="node">
<title>StateDirective</title>
<polygon fill="#ffffb3" stroke="#000000" points="498.0758,-122 401.9242,-122 401.9242,-86 498.0758,-86 498.0758,-122"/>
<text text-anchor="middle" x="450" y="-99.8" font-family="Times,serif" font-size="14.00" fill="#000000">StateDirective</text>
</g>
<!-- StateDirective&#45;&gt;SharedModule -->
<g id="edge2" class="edge">
<title>StateDirective&#45;&gt;SharedModule</title>
<path fill="none" stroke="#000000" d="M466.7626,-122.0091C466.7626,-138.0494 466.7626,-159 466.7626,-159 466.7626,-159 380.3486,-159 380.3486,-159"/>
<polygon fill="#000000" stroke="#000000" points="380.3486,-155.5001 370.3486,-159 380.3485,-162.5001 380.3486,-155.5001"/>
</g>
<!-- TableauComponent -->
<g id="node3" class="node">
<title>TableauComponent</title>
<polygon fill="#ffffb3" stroke="#000000" points="384.4201,-122 257.5799,-122 257.5799,-86 384.4201,-86 384.4201,-122"/>
<text text-anchor="middle" x="321" y="-99.8" font-family="Times,serif" font-size="14.00" fill="#000000">TableauComponent</text>
</g>
<!-- TableauComponent&#45;&gt;SharedModule -->
<g id="edge3" class="edge">
<title>TableauComponent&#45;&gt;SharedModule</title>
<path fill="none" stroke="#000000" d="M321,-122.1061C321,-122.1061 321,-140.991 321,-140.991"/>
<polygon fill="#000000" stroke="#000000" points="317.5001,-140.9909 321,-150.991 324.5001,-140.991 317.5001,-140.9909"/>
</g>
<!-- TotalPipe -->
<g id="node4" class="node">
<title>TotalPipe</title>
<polygon fill="#ffffb3" stroke="#000000" points="240.4376,-122 169.5624,-122 169.5624,-86 240.4376,-86 240.4376,-122"/>
<text text-anchor="middle" x="205" y="-99.8" font-family="Times,serif" font-size="14.00" fill="#000000">TotalPipe</text>
</g>
<!-- TotalPipe&#45;&gt;SharedModule -->
<g id="edge4" class="edge">
<title>TotalPipe&#45;&gt;SharedModule</title>
<path fill="none" stroke="#000000" d="M215.0482,-122.0091C215.0482,-138.0494 215.0482,-159 215.0482,-159 215.0482,-159 261.7462,-159 261.7462,-159"/>
<polygon fill="#000000" stroke="#000000" points="261.7463,-162.5001 271.7462,-159 261.7462,-155.5001 261.7463,-162.5001"/>
</g>
<!-- AddRowComponent  -->
<g id="node7" class="node">
<title>AddRowComponent </title>
<polygon fill="#fb8072" stroke="#000000" points="656.8827,-252 521.1173,-252 521.1173,-216 656.8827,-216 656.8827,-252"/>
<text text-anchor="middle" x="589" y="-229.8" font-family="Times,serif" font-size="14.00" fill="#000000">AddRowComponent </text>
</g>
<!-- SharedModule&#45;&gt;AddRowComponent  -->
<g id="edge6" class="edge">
<title>SharedModule&#45;&gt;AddRowComponent </title>
<path fill="none" stroke="#000000" stroke-dasharray="5,2" d="M370.3698,-173C441.2789,-173 563.5196,-173 563.5196,-173 563.5196,-173 563.5196,-205.698 563.5196,-205.698"/>
<polygon fill="#000000" stroke="#000000" points="560.0197,-205.698 563.5196,-215.698 567.0197,-205.698 560.0197,-205.698"/>
</g>
<!-- StateDirective  -->
<g id="node8" class="node">
<title>StateDirective </title>
<polygon fill="#fb8072" stroke="#000000" points="503.5767,-252 404.4233,-252 404.4233,-216 503.5767,-216 503.5767,-252"/>
<text text-anchor="middle" x="454" y="-229.8" font-family="Times,serif" font-size="14.00" fill="#000000">StateDirective </text>
</g>
<!-- SharedModule&#45;&gt;StateDirective  -->
<g id="edge7" class="edge">
<title>SharedModule&#45;&gt;StateDirective </title>
<path fill="none" stroke="#000000" stroke-dasharray="5,2" d="M370.2174,-180C401.2474,-180 435.4874,-180 435.4874,-180 435.4874,-180 435.4874,-205.7181 435.4874,-205.7181"/>
<polygon fill="#000000" stroke="#000000" points="431.9875,-205.718 435.4874,-215.7181 438.9875,-205.7181 431.9875,-205.718"/>
</g>
<!-- TableauComponent  -->
<g id="node9" class="node">
<title>TableauComponent </title>
<polygon fill="#fb8072" stroke="#000000" points="385.9194,-252 256.0806,-252 256.0806,-216 385.9194,-216 385.9194,-252"/>
<text text-anchor="middle" x="321" y="-229.8" font-family="Times,serif" font-size="14.00" fill="#000000">TableauComponent </text>
</g>
<!-- SharedModule&#45;&gt;TableauComponent  -->
<g id="edge8" class="edge">
<title>SharedModule&#45;&gt;TableauComponent </title>
<path fill="none" stroke="#000000" stroke-dasharray="5,2" d="M321,-187.1061C321,-187.1061 321,-205.991 321,-205.991"/>
<polygon fill="#000000" stroke="#000000" points="317.5001,-205.9909 321,-215.991 324.5001,-205.991 317.5001,-205.9909"/>
</g>
<!-- TemplatesModule  -->
<g id="node10" class="node">
<title>TemplatesModule </title>
<polygon fill="#fb8072" stroke="#000000" points="237.8631,-252 116.1369,-252 116.1369,-216 237.8631,-216 237.8631,-252"/>
<text text-anchor="middle" x="177" y="-229.8" font-family="Times,serif" font-size="14.00" fill="#000000">TemplatesModule </text>
</g>
<!-- SharedModule&#45;&gt;TemplatesModule  -->
<g id="edge9" class="edge">
<title>SharedModule&#45;&gt;TemplatesModule </title>
<path fill="none" stroke="#000000" stroke-dasharray="5,2" d="M271.6534,-180C235.3918,-180 192.415,-180 192.415,-180 192.415,-180 192.415,-205.7181 192.415,-205.7181"/>
<polygon fill="#000000" stroke="#000000" points="188.9151,-205.718 192.415,-215.7181 195.9151,-205.7181 188.9151,-205.718"/>
</g>
<!-- TotalPipe  -->
<g id="node11" class="node">
<title>TotalPipe </title>
<polygon fill="#fb8072" stroke="#000000" points="97.9362,-252 24.0638,-252 24.0638,-216 97.9362,-216 97.9362,-252"/>
<text text-anchor="middle" x="61" y="-229.8" font-family="Times,serif" font-size="14.00" fill="#000000">TotalPipe </text>
</g>
<!-- SharedModule&#45;&gt;TotalPipe  -->
<g id="edge10" class="edge">
<title>SharedModule&#45;&gt;TotalPipe </title>
<path fill="none" stroke="#000000" stroke-dasharray="5,2" d="M271.5638,-173C196.6545,-173 63.0184,-173 63.0184,-173 63.0184,-173 63.0184,-205.698 63.0184,-205.698"/>
<polygon fill="#000000" stroke="#000000" points="59.5183,-205.698 63.0184,-215.698 66.5183,-205.698 59.5183,-205.698"/>
</g>
<!-- TemplatesModule -->
<g id="node6" class="node">
<title>TemplatesModule</title>
<polygon fill="#8dd3c7" stroke="#000000" points="145.8627,-122 142.8627,-126 121.8627,-126 118.8627,-122 28.1373,-122 28.1373,-86 145.8627,-86 145.8627,-122"/>
<text text-anchor="middle" x="87" y="-99.8" font-family="Times,serif" font-size="14.00" fill="#000000">TemplatesModule</text>
</g>
<!-- TemplatesModule&#45;&gt;SharedModule -->
<g id="edge5" class="edge">
<title>TemplatesModule&#45;&gt;SharedModule</title>
<path fill="none" stroke="#000000" d="M131.125,-122.2667C131.125,-140.5552 131.125,-166 131.125,-166 131.125,-166 261.6082,-166 261.6082,-166"/>
<polygon fill="#000000" stroke="#000000" points="261.6083,-169.5001 271.6082,-166 261.6082,-162.5001 261.6083,-169.5001"/>
</g>
</g>
</svg>
