<?xml version="1.0" encoding="UTF-8" standalone="no"?>
<!DOCTYPE svg PUBLIC "-//W3C//DTD SVG 1.1//EN"
 "http://www.w3.org/Graphics/SVG/1.1/DTD/svg11.dtd">
<!-- Generated by graphviz version 2.40.1 (20161225.0304)
 -->
<!-- Title: dependencies Pages: 1 -->
<svg width="1339pt" height="211pt"
 viewBox="0.00 0.00 1339.00 211.00" xmlns="http://www.w3.org/2000/svg" xmlns:xlink="http://www.w3.org/1999/xlink">
<g id="graph0" class="graph" transform="scale(1 1) rotate(0) translate(4 207)">
<title>dependencies</title>
<polygon fill="#ffffff" stroke="transparent" points="-4,4 -4,-207 1335,-207 1335,4 -4,4"/>
<text text-anchor="start" x="644.5091" y="-42.4" font-family="sans-serif" font-weight="bold" font-size="14.00" fill="#000000">Legend</text>
<polygon fill="#ffffb3" stroke="transparent" points="431.5,-10 431.5,-30 451.5,-30 451.5,-10 431.5,-10"/>
<text text-anchor="start" x="455.129" y="-15.4" font-family="sans-serif" font-size="14.00" fill="#000000"> &#160;Declarations</text>
<polygon fill="#8dd3c7" stroke="transparent" points="544.5,-10 544.5,-30 564.5,-30 564.5,-10 544.5,-10"/>
<text text-anchor="start" x="568.2251" y="-15.4" font-family="sans-serif" font-size="14.00" fill="#000000"> &#160;Module</text>
<polygon fill="#80b1d3" stroke="transparent" points="630.5,-10 630.5,-30 650.5,-30 650.5,-10 630.5,-10"/>
<text text-anchor="start" x="654.2812" y="-15.4" font-family="sans-serif" font-size="14.00" fill="#000000"> &#160;Bootstrap</text>
<polygon fill="#fdb462" stroke="transparent" points="727.5,-10 727.5,-30 747.5,-30 747.5,-10 727.5,-10"/>
<text text-anchor="start" x="751.1732" y="-15.4" font-family="sans-serif" font-size="14.00" fill="#000000"> &#160;Providers</text>
<polygon fill="#fb8072" stroke="transparent" points="823.5,-10 823.5,-30 843.5,-30 843.5,-10 823.5,-10"/>
<text text-anchor="start" x="847.2258" y="-15.4" font-family="sans-serif" font-size="14.00" fill="#000000"> &#160;Exports</text>
<g id="clust1" class="cluster">
<title>cluster_ClientsModule</title>
<polygon fill="none" stroke="#000000" stroke-dasharray="1,5" points="8,-70 8,-195 1323,-195 1323,-70 8,-70"/>
</g>
<g id="clust2" class="cluster">
<title>cluster_ClientsModule_declarations</title>
<polygon fill="none" stroke="#000000" points="300,-78 300,-130 1315,-130 1315,-78 300,-78"/>
</g>
<g id="clust9" class="cluster">
<title>cluster_ClientsModule_imports</title>
<polygon fill="none" stroke="#000000" points="16,-78 16,-130 292,-130 292,-78 16,-78"/>
</g>
<!-- AddClientComponent -->
<g id="node1" class="node">
<title>AddClientComponent</title>
<polygon fill="#ffffb3" stroke="#000000" points="1306.6624,-122 1167.3376,-122 1167.3376,-86 1306.6624,-86 1306.6624,-122"/>
<text text-anchor="middle" x="1237" y="-99.8" font-family="Times,serif" font-size="14.00" fill="#000000">AddClientComponent</text>
</g>
<!-- ClientsModule -->
<g id="node7" class="node">
<title>ClientsModule</title>
<polygon fill="#8dd3c7" stroke="#000000" points="693.7176,-187 690.7176,-191 669.7176,-191 666.7176,-187 594.2824,-187 594.2824,-151 693.7176,-151 693.7176,-187"/>
<text text-anchor="middle" x="644" y="-164.8" font-family="Times,serif" font-size="14.00" fill="#000000">ClientsModule</text>
</g>
<!-- AddClientComponent&#45;&gt;ClientsModule -->
<g id="edge1" class="edge">
<title>AddClientComponent&#45;&gt;ClientsModule</title>
<path fill="none" stroke="#000000" d="M1237,-122.2921C1237,-144.2057 1237,-178 1237,-178 1237,-178 703.7931,-178 703.7931,-178"/>
<polygon fill="#000000" stroke="#000000" points="703.7931,-174.5001 693.7931,-178 703.793,-181.5001 703.7931,-174.5001"/>
</g>
<!-- ClientComponent -->
<g id="node2" class="node">
<title>ClientComponent</title>
<polygon fill="#ffffb3" stroke="#000000" points="1148.5563,-122 1033.4437,-122 1033.4437,-86 1148.5563,-86 1148.5563,-122"/>
<text text-anchor="middle" x="1091" y="-99.8" font-family="Times,serif" font-size="14.00" fill="#000000">ClientComponent</text>
</g>
<!-- ClientComponent&#45;&gt;ClientsModule -->
<g id="edge2" class="edge">
<title>ClientComponent&#45;&gt;ClientsModule</title>
<path fill="none" stroke="#000000" d="M1091,-122.1061C1091,-141.3391 1091,-169 1091,-169 1091,-169 703.9754,-169 703.9754,-169"/>
<polygon fill="#000000" stroke="#000000" points="703.9755,-165.5001 693.9754,-169 703.9754,-172.5001 703.9755,-165.5001"/>
</g>
<!-- FormReactiveClientComponent -->
<g id="node3" class="node">
<title>FormReactiveClientComponent</title>
<polygon fill="#ffffb3" stroke="#000000" points="1015.3654,-122 820.6346,-122 820.6346,-86 1015.3654,-86 1015.3654,-122"/>
<text text-anchor="middle" x="918" y="-99.8" font-family="Times,serif" font-size="14.00" fill="#000000">FormReactiveClientComponent</text>
</g>
<!-- FormReactiveClientComponent&#45;&gt;ClientsModule -->
<g id="edge3" class="edge">
<title>FormReactiveClientComponent&#45;&gt;ClientsModule</title>
<path fill="none" stroke="#000000" d="M918,-122.027C918,-138.3976 918,-160 918,-160 918,-160 703.6193,-160 703.6193,-160"/>
<polygon fill="#000000" stroke="#000000" points="703.6194,-156.5001 693.6193,-160 703.6193,-163.5001 703.6194,-156.5001"/>
</g>
<!-- ListClientsComponent -->
<g id="node4" class="node">
<title>ListClientsComponent</title>
<polygon fill="#ffffb3" stroke="#000000" points="802.2786,-122 659.7214,-122 659.7214,-86 802.2786,-86 802.2786,-122"/>
<text text-anchor="middle" x="731" y="-99.8" font-family="Times,serif" font-size="14.00" fill="#000000">ListClientsComponent</text>
</g>
<!-- ListClientsComponent&#45;&gt;ClientsModule -->
<g id="edge4" class="edge">
<title>ListClientsComponent&#45;&gt;ClientsModule</title>
<path fill="none" stroke="#000000" d="M676.6098,-122.1061C676.6098,-122.1061 676.6098,-140.991 676.6098,-140.991"/>
<polygon fill="#000000" stroke="#000000" points="673.1098,-140.9909 676.6098,-150.991 680.1098,-140.991 673.1098,-140.9909"/>
</g>
<!-- PageAddClientComponent -->
<g id="node5" class="node">
<title>PageAddClientComponent</title>
<polygon fill="#ffffb3" stroke="#000000" points="641.3738,-122 474.6262,-122 474.6262,-86 641.3738,-86 641.3738,-122"/>
<text text-anchor="middle" x="558" y="-99.8" font-family="Times,serif" font-size="14.00" fill="#000000">PageAddClientComponent</text>
</g>
<!-- PageAddClientComponent&#45;&gt;ClientsModule -->
<g id="edge5" class="edge">
<title>PageAddClientComponent&#45;&gt;ClientsModule</title>
<path fill="none" stroke="#000000" d="M617.9141,-122.1061C617.9141,-122.1061 617.9141,-140.991 617.9141,-140.991"/>
<polygon fill="#000000" stroke="#000000" points="614.4142,-140.9909 617.9141,-150.991 621.4142,-140.991 614.4142,-140.9909"/>
</g>
<!-- PageClientsComponent -->
<g id="node6" class="node">
<title>PageClientsComponent</title>
<polygon fill="#ffffb3" stroke="#000000" points="456.212,-122 307.788,-122 307.788,-86 456.212,-86 456.212,-122"/>
<text text-anchor="middle" x="382" y="-99.8" font-family="Times,serif" font-size="14.00" fill="#000000">PageClientsComponent</text>
</g>
<!-- PageClientsComponent&#45;&gt;ClientsModule -->
<g id="edge6" class="edge">
<title>PageClientsComponent&#45;&gt;ClientsModule</title>
<path fill="none" stroke="#000000" d="M382,-122.027C382,-138.3976 382,-160 382,-160 382,-160 584.1031,-160 584.1031,-160"/>
<polygon fill="#000000" stroke="#000000" points="584.1031,-163.5001 594.1031,-160 584.1031,-156.5001 584.1031,-163.5001"/>
</g>
<!-- ClientsRoutingModule -->
<g id="node8" class="node">
<title>ClientsRoutingModule</title>
<polygon fill="#8dd3c7" stroke="#000000" points="284.3356,-122 281.3356,-126 260.3356,-126 257.3356,-122 139.6644,-122 139.6644,-86 284.3356,-86 284.3356,-122"/>
<text text-anchor="middle" x="212" y="-99.8" font-family="Times,serif" font-size="14.00" fill="#000000">ClientsRoutingModule</text>
</g>
<!-- ClientsRoutingModule&#45;&gt;ClientsModule -->
<g id="edge7" class="edge">
<title>ClientsRoutingModule&#45;&gt;ClientsModule</title>
<path fill="none" stroke="#000000" d="M212,-122.1061C212,-141.3391 212,-169 212,-169 212,-169 584.0221,-169 584.0221,-169"/>
<polygon fill="#000000" stroke="#000000" points="584.0221,-172.5001 594.0221,-169 584.022,-165.5001 584.0221,-172.5001"/>
</g>
<!-- SharedModule -->
<g id="node9" class="node">
<title>SharedModule</title>
<polygon fill="#8dd3c7" stroke="#000000" points="122.4231,-122 119.4231,-126 98.4231,-126 95.4231,-122 23.5769,-122 23.5769,-86 122.4231,-86 122.4231,-122"/>
<text text-anchor="middle" x="73" y="-99.8" font-family="Times,serif" font-size="14.00" fill="#000000">SharedModule</text>
</g>
<!-- SharedModule&#45;&gt;ClientsModule -->
<g id="edge8" class="edge">
<title>SharedModule&#45;&gt;ClientsModule</title>
<path fill="none" stroke="#000000" d="M73,-122.2921C73,-144.2057 73,-178 73,-178 73,-178 584.3264,-178 584.3264,-178"/>
<polygon fill="#000000" stroke="#000000" points="584.3264,-181.5001 594.3264,-178 584.3263,-174.5001 584.3264,-181.5001"/>
</g>
</g>
</svg>
