<?xml version="1.0" encoding="UTF-8" standalone="no"?>
<!DOCTYPE svg PUBLIC "-//W3C//DTD SVG 1.1//EN"
 "http://www.w3.org/Graphics/SVG/1.1/DTD/svg11.dtd">
<!-- Generated by graphviz version 2.40.1 (20161225.0304)
 -->
<!-- Title: dependencies Pages: 1 -->
<svg width="5620pt" height="374pt"
 viewBox="0.00 0.00 5620.00 374.00" xmlns="http://www.w3.org/2000/svg" xmlns:xlink="http://www.w3.org/1999/xlink">
<g id="graph0" class="graph" transform="scale(1 1) rotate(0) translate(4 370)">
<title>dependencies</title>
<polygon fill="#ffffff" stroke="transparent" points="-4,4 -4,-370 5616,-370 5616,4 -4,4"/>
<text text-anchor="start" x="2785.0091" y="-42.4" font-family="sans-serif" font-weight="bold" font-size="14.00" fill="#000000">Legend</text>
<polygon fill="#ffffb3" stroke="transparent" points="2572,-10 2572,-30 2592,-30 2592,-10 2572,-10"/>
<text text-anchor="start" x="2595.629" y="-15.4" font-family="sans-serif" font-size="14.00" fill="#000000"> &#160;Declarations</text>
<polygon fill="#8dd3c7" stroke="transparent" points="2685,-10 2685,-30 2705,-30 2705,-10 2685,-10"/>
<text text-anchor="start" x="2708.7251" y="-15.4" font-family="sans-serif" font-size="14.00" fill="#000000"> &#160;Module</text>
<polygon fill="#80b1d3" stroke="transparent" points="2771,-10 2771,-30 2791,-30 2791,-10 2771,-10"/>
<text text-anchor="start" x="2794.7812" y="-15.4" font-family="sans-serif" font-size="14.00" fill="#000000"> &#160;Bootstrap</text>
<polygon fill="#fdb462" stroke="transparent" points="2868,-10 2868,-30 2888,-30 2888,-10 2868,-10"/>
<text text-anchor="start" x="2891.6732" y="-15.4" font-family="sans-serif" font-size="14.00" fill="#000000"> &#160;Providers</text>
<polygon fill="#fb8072" stroke="transparent" points="2964,-10 2964,-30 2984,-30 2984,-10 2964,-10"/>
<text text-anchor="start" x="2987.7258" y="-15.4" font-family="sans-serif" font-size="14.00" fill="#000000"> &#160;Exports</text>
<g id="clust1" class="cluster">
<title>cluster_AppModule</title>
<polygon fill="none" stroke="#000000" stroke-dasharray="1,5" points="390,-146 390,-358 883,-358 883,-146 390,-146"/>
</g>
<g id="clust2" class="cluster">
<title>cluster_AppModule_declarations</title>
<polygon fill="none" stroke="#000000" points="753,-154 753,-206 875,-206 875,-154 753,-154"/>
</g>
<g id="clust4" class="cluster">
<title>cluster_AppModule_imports</title>
<polygon fill="none" stroke="#000000" points="398,-154 398,-206 745,-206 745,-154 398,-154"/>
</g>
<g id="clust6" class="cluster">
<title>cluster_AppModule_bootstrap</title>
<polygon fill="none" stroke="#000000" points="546,-298 546,-350 670,-350 670,-298 546,-298"/>
</g>
<g id="clust14" class="cluster">
<title>cluster_ClientsModule</title>
<polygon fill="none" stroke="#000000" stroke-dasharray="1,5" points="1008,-70 1008,-206 2323,-206 2323,-70 1008,-70"/>
</g>
<g id="clust15" class="cluster">
<title>cluster_ClientsModule_declarations</title>
<polygon fill="none" stroke="#000000" points="1016,-78 1016,-130 2031,-130 2031,-78 1016,-78"/>
</g>
<g id="clust22" class="cluster">
<title>cluster_ClientsModule_imports</title>
<polygon fill="none" stroke="#000000" points="2039,-78 2039,-130 2315,-130 2315,-78 2039,-78"/>
</g>
<g id="clust32" class="cluster">
<title>cluster_LoginModule</title>
<polygon fill="none" stroke="#000000" stroke-dasharray="1,5" points="664,-70 664,-138 1000,-138 1000,-70 664,-70"/>
</g>
<g id="clust33" class="cluster">
<title>cluster_LoginModule_declarations</title>
<polygon fill="none" stroke="#000000" points="834,-78 834,-130 992,-130 992,-78 834,-78"/>
</g>
<g id="clust35" class="cluster">
<title>cluster_LoginModule_imports</title>
<polygon fill="none" stroke="#000000" points="672,-78 672,-130 826,-130 826,-78 672,-78"/>
</g>
<g id="clust45" class="cluster">
<title>cluster_PageNotFoundModule</title>
<polygon fill="none" stroke="#000000" stroke-dasharray="1,5" points="5194,-70 5194,-206 5604,-206 5604,-70 5194,-70"/>
</g>
<g id="clust46" class="cluster">
<title>cluster_PageNotFoundModule_declarations</title>
<polygon fill="none" stroke="#000000" points="5414,-78 5414,-130 5596,-130 5596,-78 5414,-78"/>
</g>
<g id="clust48" class="cluster">
<title>cluster_PageNotFoundModule_imports</title>
<polygon fill="none" stroke="#000000" points="5202,-78 5202,-130 5406,-130 5406,-78 5202,-78"/>
</g>
<g id="clust58" class="cluster">
<title>cluster_PrestationsModule</title>
<polygon fill="none" stroke="#000000" stroke-dasharray="1,5" points="3648,-70 3648,-206 5186,-206 5186,-70 3648,-70"/>
</g>
<g id="clust59" class="cluster">
<title>cluster_PrestationsModule_declarations</title>
<polygon fill="none" stroke="#000000" points="3846,-78 3846,-130 5178,-130 5178,-78 3846,-78"/>
</g>
<g id="clust67" class="cluster">
<title>cluster_PrestationsModule_imports</title>
<polygon fill="none" stroke="#000000" points="3656,-78 3656,-130 3838,-130 3838,-78 3656,-78"/>
</g>
<g id="clust77" class="cluster">
<title>cluster_SharedModule</title>
<polygon fill="none" stroke="#000000" stroke-dasharray="1,5" points="2331,-146 2331,-214 3640,-214 3640,-146 2331,-146"/>
</g>
<g id="clust78" class="cluster">
<title>cluster_SharedModule_declarations</title>
<polygon fill="none" stroke="#000000" points="3138,-154 3138,-206 3632,-206 3632,-154 3138,-154"/>
</g>
<g id="clust83" class="cluster">
<title>cluster_SharedModule_imports</title>
<polygon fill="none" stroke="#000000" points="2996,-154 2996,-206 3130,-206 3130,-154 2996,-154"/>
</g>
<g id="clust84" class="cluster">
<title>cluster_SharedModule_exports</title>
<polygon fill="none" stroke="#000000" points="2339,-154 2339,-206 2988,-206 2988,-154 2339,-154"/>
</g>
<g id="clust87" class="cluster">
<title>cluster_TemplatesModule</title>
<polygon fill="none" stroke="#000000" stroke-dasharray="1,5" points="2723,-222 2723,-290 3398,-290 3398,-222 2723,-222"/>
</g>
<g id="clust88" class="cluster">
<title>cluster_TemplatesModule_declarations</title>
<polygon fill="none" stroke="#000000" points="3068,-230 3068,-282 3390,-282 3390,-230 3068,-230"/>
</g>
<g id="clust92" class="cluster">
<title>cluster_TemplatesModule_exports</title>
<polygon fill="none" stroke="#000000" points="2731,-230 2731,-282 3060,-282 3060,-230 2731,-230"/>
</g>
<g id="clust95" class="cluster">
<title>cluster_UiModule</title>
<polygon fill="none" stroke="#000000" stroke-dasharray="1,5" points="8,-70 8,-138 656,-138 656,-70 8,-70"/>
</g>
<g id="clust96" class="cluster">
<title>cluster_UiModule_declarations</title>
<polygon fill="none" stroke="#000000" points="138,-78 138,-130 648,-130 648,-78 138,-78"/>
</g>
<g id="clust102" class="cluster">
<title>cluster_UiModule_exports</title>
<polygon fill="none" stroke="#000000" points="16,-78 16,-130 130,-130 130,-78 16,-78"/>
</g>
<!-- AppComponent -->
<g id="node1" class="node">
<title>AppComponent</title>
<polygon fill="#ffffb3" stroke="#000000" points="866.9399,-198 761.0601,-198 761.0601,-162 866.9399,-162 866.9399,-198"/>
<text text-anchor="middle" x="814" y="-175.8" font-family="Times,serif" font-size="14.00" fill="#000000">AppComponent</text>
</g>
<!-- AppModule -->
<g id="node2" class="node">
<title>AppModule</title>
<polygon fill="#8dd3c7" stroke="#000000" points="649.6571,-274 646.6571,-278 625.6571,-278 622.6571,-274 566.3429,-274 566.3429,-238 649.6571,-238 649.6571,-274"/>
<text text-anchor="middle" x="608" y="-251.8" font-family="Times,serif" font-size="14.00" fill="#000000">AppModule</text>
</g>
<!-- AppComponent&#45;&gt;AppModule -->
<g id="edge1" class="edge">
<title>AppComponent&#45;&gt;AppModule</title>
<path fill="none" stroke="#000000" d="M814,-198.0109C814,-220.4852 814,-256 814,-256 814,-256 659.6872,-256 659.6872,-256"/>
<polygon fill="#000000" stroke="#000000" points="659.6872,-252.5001 649.6872,-256 659.6871,-259.5001 659.6872,-252.5001"/>
</g>
<!-- AppComponent  -->
<g id="node6" class="node">
<title>AppComponent </title>
<polygon fill="#80b1d3" stroke="#000000" points="662.439,-342 553.561,-342 553.561,-306 662.439,-306 662.439,-342"/>
<text text-anchor="middle" x="608" y="-319.8" font-family="Times,serif" font-size="14.00" fill="#000000">AppComponent </text>
</g>
<!-- AppModule&#45;&gt;AppComponent  -->
<g id="edge5" class="edge">
<title>AppModule&#45;&gt;AppComponent </title>
<path fill="none" stroke="#000000" stroke-dasharray="1,5" d="M608,-274.2228C608,-274.2228 608,-295.7269 608,-295.7269"/>
<polygon fill="#000000" stroke="#000000" points="604.5001,-295.7269 608,-305.7269 611.5001,-295.727 604.5001,-295.7269"/>
</g>
<!-- AppRoutingModule -->
<g id="node3" class="node">
<title>AppRoutingModule</title>
<polygon fill="#8dd3c7" stroke="#000000" points="737.2744,-198 734.2744,-202 713.2744,-202 710.2744,-198 608.7256,-198 608.7256,-162 737.2744,-162 737.2744,-198"/>
<text text-anchor="middle" x="673" y="-175.8" font-family="Times,serif" font-size="14.00" fill="#000000">AppRoutingModule</text>
</g>
<!-- AppRoutingModule&#45;&gt;AppModule -->
<g id="edge2" class="edge">
<title>AppRoutingModule&#45;&gt;AppModule</title>
<path fill="none" stroke="#000000" d="M629.2206,-198.0109C629.2206,-198.0109 629.2206,-227.855 629.2206,-227.855"/>
<polygon fill="#000000" stroke="#000000" points="625.7206,-227.8549 629.2206,-237.855 632.7206,-227.855 625.7206,-227.8549"/>
</g>
<!-- LoginModule -->
<g id="node4" class="node">
<title>LoginModule</title>
<polygon fill="#8dd3c7" stroke="#000000" points="590.493,-198 587.493,-202 566.493,-202 563.493,-198 497.507,-198 497.507,-162 590.493,-162 590.493,-198"/>
<text text-anchor="middle" x="544" y="-175.8" font-family="Times,serif" font-size="14.00" fill="#000000">LoginModule</text>
</g>
<!-- LoginModule&#45;&gt;AppModule -->
<g id="edge3" class="edge">
<title>LoginModule&#45;&gt;AppModule</title>
<path fill="none" stroke="#000000" d="M578.3342,-198.0109C578.3342,-198.0109 578.3342,-227.855 578.3342,-227.855"/>
<polygon fill="#000000" stroke="#000000" points="574.8342,-227.8549 578.3342,-237.855 581.8342,-227.855 574.8342,-227.8549"/>
</g>
<!-- UiModule -->
<g id="node5" class="node">
<title>UiModule</title>
<polygon fill="#8dd3c7" stroke="#000000" points="479.5484,-198 476.5484,-202 455.5484,-202 452.5484,-198 406.4516,-198 406.4516,-162 479.5484,-162 479.5484,-198"/>
<text text-anchor="middle" x="443" y="-175.8" font-family="Times,serif" font-size="14.00" fill="#000000">UiModule</text>
</g>
<!-- UiModule&#45;&gt;AppModule -->
<g id="edge4" class="edge">
<title>UiModule&#45;&gt;AppModule</title>
<path fill="none" stroke="#000000" d="M443,-198.0109C443,-220.4852 443,-256 443,-256 443,-256 555.9366,-256 555.9366,-256"/>
<polygon fill="#000000" stroke="#000000" points="555.9366,-259.5001 565.9366,-256 555.9366,-252.5001 555.9366,-259.5001"/>
</g>
<!-- UiComponent  -->
<g id="node48" class="node">
<title>UiComponent </title>
<polygon fill="#fb8072" stroke="#000000" points="122.3297,-122 23.6703,-122 23.6703,-86 122.3297,-86 122.3297,-122"/>
<text text-anchor="middle" x="73" y="-99.8" font-family="Times,serif" font-size="14.00" fill="#000000">UiComponent </text>
</g>
<!-- UiModule&#45;&gt;UiComponent  -->
<g id="edge45" class="edge">
<title>UiModule&#45;&gt;UiComponent </title>
<path fill="none" stroke="#000000" stroke-dasharray="5,2" d="M406.1703,-189C312.5831,-189 73,-189 73,-189 73,-189 73,-132.0263 73,-132.0263"/>
<polygon fill="#000000" stroke="#000000" points="76.5001,-132.0263 73,-122.0263 69.5001,-132.0263 76.5001,-132.0263"/>
</g>
<!-- AddClientComponent -->
<g id="node7" class="node">
<title>AddClientComponent</title>
<polygon fill="#ffffb3" stroke="#000000" points="2022.6624,-122 1883.3376,-122 1883.3376,-86 2022.6624,-86 2022.6624,-122"/>
<text text-anchor="middle" x="1953" y="-99.8" font-family="Times,serif" font-size="14.00" fill="#000000">AddClientComponent</text>
</g>
<!-- ClientsModule -->
<g id="node13" class="node">
<title>ClientsModule</title>
<polygon fill="#8dd3c7" stroke="#000000" points="1769.7176,-198 1766.7176,-202 1745.7176,-202 1742.7176,-198 1670.2824,-198 1670.2824,-162 1769.7176,-162 1769.7176,-198"/>
<text text-anchor="middle" x="1720" y="-175.8" font-family="Times,serif" font-size="14.00" fill="#000000">ClientsModule</text>
</g>
<!-- AddClientComponent&#45;&gt;ClientsModule -->
<g id="edge6" class="edge">
<title>AddClientComponent&#45;&gt;ClientsModule</title>
<path fill="none" stroke="#000000" d="M1953,-122.308C1953,-142.1455 1953,-171 1953,-171 1953,-171 1779.6986,-171 1779.6986,-171"/>
<polygon fill="#000000" stroke="#000000" points="1779.6986,-167.5001 1769.6986,-171 1779.6985,-174.5001 1779.6986,-167.5001"/>
</g>
<!-- ClientComponent -->
<g id="node8" class="node">
<title>ClientComponent</title>
<polygon fill="#ffffb3" stroke="#000000" points="1864.5563,-122 1749.4437,-122 1749.4437,-86 1864.5563,-86 1864.5563,-122"/>
<text text-anchor="middle" x="1807" y="-99.8" font-family="Times,serif" font-size="14.00" fill="#000000">ClientComponent</text>
</g>
<!-- ClientComponent&#45;&gt;ClientsModule -->
<g id="edge7" class="edge">
<title>ClientComponent&#45;&gt;ClientsModule</title>
<path fill="none" stroke="#000000" d="M1759.4155,-122.0109C1759.4155,-122.0109 1759.4155,-151.855 1759.4155,-151.855"/>
<polygon fill="#000000" stroke="#000000" points="1755.9156,-151.8549 1759.4155,-161.855 1762.9156,-151.855 1755.9156,-151.8549"/>
</g>
<!-- FormReactiveClientComponent -->
<g id="node9" class="node">
<title>FormReactiveClientComponent</title>
<polygon fill="#ffffb3" stroke="#000000" points="1731.3654,-122 1536.6346,-122 1536.6346,-86 1731.3654,-86 1731.3654,-122"/>
<text text-anchor="middle" x="1634" y="-99.8" font-family="Times,serif" font-size="14.00" fill="#000000">FormReactiveClientComponent</text>
</g>
<!-- FormReactiveClientComponent&#45;&gt;ClientsModule -->
<g id="edge8" class="edge">
<title>FormReactiveClientComponent&#45;&gt;ClientsModule</title>
<path fill="none" stroke="#000000" d="M1700.912,-122.0109C1700.912,-122.0109 1700.912,-151.855 1700.912,-151.855"/>
<polygon fill="#000000" stroke="#000000" points="1697.4121,-151.8549 1700.912,-161.855 1704.4121,-151.855 1697.4121,-151.8549"/>
</g>
<!-- ListClientsComponent -->
<g id="node10" class="node">
<title>ListClientsComponent</title>
<polygon fill="#ffffb3" stroke="#000000" points="1518.2786,-122 1375.7214,-122 1375.7214,-86 1518.2786,-86 1518.2786,-122"/>
<text text-anchor="middle" x="1447" y="-99.8" font-family="Times,serif" font-size="14.00" fill="#000000">ListClientsComponent</text>
</g>
<!-- ListClientsComponent&#45;&gt;ClientsModule -->
<g id="edge9" class="edge">
<title>ListClientsComponent&#45;&gt;ClientsModule</title>
<path fill="none" stroke="#000000" d="M1447,-122.308C1447,-142.1455 1447,-171 1447,-171 1447,-171 1660.245,-171 1660.245,-171"/>
<polygon fill="#000000" stroke="#000000" points="1660.2451,-174.5001 1670.245,-171 1660.245,-167.5001 1660.2451,-174.5001"/>
</g>
<!-- PageAddClientComponent -->
<g id="node11" class="node">
<title>PageAddClientComponent</title>
<polygon fill="#ffffb3" stroke="#000000" points="1357.3738,-122 1190.6262,-122 1190.6262,-86 1357.3738,-86 1357.3738,-122"/>
<text text-anchor="middle" x="1274" y="-99.8" font-family="Times,serif" font-size="14.00" fill="#000000">PageAddClientComponent</text>
</g>
<!-- PageAddClientComponent&#45;&gt;ClientsModule -->
<g id="edge10" class="edge">
<title>PageAddClientComponent&#45;&gt;ClientsModule</title>
<path fill="none" stroke="#000000" d="M1274,-122.0109C1274,-144.4852 1274,-180 1274,-180 1274,-180 1660.1364,-180 1660.1364,-180"/>
<polygon fill="#000000" stroke="#000000" points="1660.1364,-183.5001 1670.1364,-180 1660.1363,-176.5001 1660.1364,-183.5001"/>
</g>
<!-- PageClientsComponent -->
<g id="node12" class="node">
<title>PageClientsComponent</title>
<polygon fill="#ffffb3" stroke="#000000" points="1172.212,-122 1023.788,-122 1023.788,-86 1172.212,-86 1172.212,-122"/>
<text text-anchor="middle" x="1098" y="-99.8" font-family="Times,serif" font-size="14.00" fill="#000000">PageClientsComponent</text>
</g>
<!-- PageClientsComponent&#45;&gt;ClientsModule -->
<g id="edge11" class="edge">
<title>PageClientsComponent&#45;&gt;ClientsModule</title>
<path fill="none" stroke="#000000" d="M1098,-122.0263C1098,-146.9773 1098,-189 1098,-189 1098,-189 1660.1506,-189 1660.1506,-189"/>
<polygon fill="#000000" stroke="#000000" points="1660.1506,-192.5001 1670.1506,-189 1660.1505,-185.5001 1660.1506,-192.5001"/>
</g>
<!-- ClientsRoutingModule -->
<g id="node14" class="node">
<title>ClientsRoutingModule</title>
<polygon fill="#8dd3c7" stroke="#000000" points="2191.3356,-122 2188.3356,-126 2167.3356,-126 2164.3356,-122 2046.6644,-122 2046.6644,-86 2191.3356,-86 2191.3356,-122"/>
<text text-anchor="middle" x="2119" y="-99.8" font-family="Times,serif" font-size="14.00" fill="#000000">ClientsRoutingModule</text>
</g>
<!-- ClientsRoutingModule&#45;&gt;ClientsModule -->
<g id="edge12" class="edge">
<title>ClientsRoutingModule&#45;&gt;ClientsModule</title>
<path fill="none" stroke="#000000" d="M2119,-122.0109C2119,-144.4852 2119,-180 2119,-180 2119,-180 1779.7269,-180 1779.7269,-180"/>
<polygon fill="#000000" stroke="#000000" points="1779.7269,-176.5001 1769.7269,-180 1779.7268,-183.5001 1779.7269,-176.5001"/>
</g>
<!-- SharedModule -->
<g id="node15" class="node">
<title>SharedModule</title>
<polygon fill="#8dd3c7" stroke="#000000" points="2307.4231,-122 2304.4231,-126 2283.4231,-126 2280.4231,-122 2208.5769,-122 2208.5769,-86 2307.4231,-86 2307.4231,-122"/>
<text text-anchor="middle" x="2258" y="-99.8" font-family="Times,serif" font-size="14.00" fill="#000000">SharedModule</text>
</g>
<!-- SharedModule&#45;&gt;ClientsModule -->
<g id="edge13" class="edge">
<title>SharedModule&#45;&gt;ClientsModule</title>
<path fill="none" stroke="#000000" d="M2258,-122.0263C2258,-146.9773 2258,-189 2258,-189 2258,-189 1779.6494,-189 1779.6494,-189"/>
<polygon fill="#000000" stroke="#000000" points="1779.6494,-185.5001 1769.6494,-189 1779.6494,-192.5001 1779.6494,-185.5001"/>
</g>
<!-- PrestationsModule -->
<g id="node28" class="node">
<title>PrestationsModule</title>
<polygon fill="#8dd3c7" stroke="#000000" points="4352.4832,-198 4349.4832,-202 4328.4832,-202 4325.4832,-198 4231.5168,-198 4231.5168,-162 4352.4832,-162 4352.4832,-198"/>
<text text-anchor="middle" x="4292" y="-175.8" font-family="Times,serif" font-size="14.00" fill="#000000">PrestationsModule</text>
</g>
<!-- SharedModule&#45;&gt;PrestationsModule -->
<g id="edge26" class="edge">
<title>SharedModule&#45;&gt;PrestationsModule</title>
<path fill="none" stroke="#000000" d="M2307.3265,-89C2554.2179,-89 3643.9453,-89 3643.9453,-89 3643.9453,-89 3643.9453,-191 3643.9453,-191 3643.9453,-191 4221.3238,-191 4221.3238,-191"/>
<polygon fill="#000000" stroke="#000000" points="4221.3239,-194.5001 4231.3238,-191 4221.3238,-187.5001 4221.3239,-194.5001"/>
</g>
<!-- AddRowComponent  -->
<g id="node35" class="node">
<title>AddRowComponent </title>
<polygon fill="#fb8072" stroke="#000000" points="2979.8827,-198 2844.1173,-198 2844.1173,-162 2979.8827,-162 2979.8827,-198"/>
<text text-anchor="middle" x="2912" y="-175.8" font-family="Times,serif" font-size="14.00" fill="#000000">AddRowComponent </text>
</g>
<!-- SharedModule&#45;&gt;AddRowComponent  -->
<g id="edge32" class="edge">
<title>SharedModule&#45;&gt;AddRowComponent </title>
<path fill="none" stroke="#000000" stroke-dasharray="5,2" d="M2307.4244,-107C2459.7827,-107 2912,-107 2912,-107 2912,-107 2912,-151.9551 2912,-151.9551"/>
<polygon fill="#000000" stroke="#000000" points="2908.5001,-151.955 2912,-161.9551 2915.5001,-151.9551 2908.5001,-151.955"/>
</g>
<!-- StateDirective  -->
<g id="node36" class="node">
<title>StateDirective </title>
<polygon fill="#fb8072" stroke="#000000" points="2826.5767,-198 2727.4233,-198 2727.4233,-162 2826.5767,-162 2826.5767,-198"/>
<text text-anchor="middle" x="2777" y="-175.8" font-family="Times,serif" font-size="14.00" fill="#000000">StateDirective </text>
</g>
<!-- SharedModule&#45;&gt;StateDirective  -->
<g id="edge33" class="edge">
<title>SharedModule&#45;&gt;StateDirective </title>
<path fill="none" stroke="#000000" stroke-dasharray="5,2" d="M2307.2942,-110C2436.8453,-110 2777,-110 2777,-110 2777,-110 2777,-151.9733 2777,-151.9733"/>
<polygon fill="#000000" stroke="#000000" points="2773.5001,-151.9732 2777,-161.9733 2780.5001,-151.9733 2773.5001,-151.9732"/>
</g>
<!-- TableauComponent  -->
<g id="node37" class="node">
<title>TableauComponent </title>
<polygon fill="#fb8072" stroke="#000000" points="2708.9194,-198 2579.0806,-198 2579.0806,-162 2708.9194,-162 2708.9194,-198"/>
<text text-anchor="middle" x="2644" y="-175.8" font-family="Times,serif" font-size="14.00" fill="#000000">TableauComponent </text>
</g>
<!-- SharedModule&#45;&gt;TableauComponent  -->
<g id="edge34" class="edge">
<title>SharedModule&#45;&gt;TableauComponent </title>
<path fill="none" stroke="#000000" stroke-dasharray="5,2" d="M2307.2792,-113C2411.34,-113 2644,-113 2644,-113 2644,-113 2644,-151.692 2644,-151.692"/>
<polygon fill="#000000" stroke="#000000" points="2640.5001,-151.6919 2644,-161.692 2647.5001,-151.692 2640.5001,-151.6919"/>
</g>
<!-- TemplatesModule  -->
<g id="node38" class="node">
<title>TemplatesModule </title>
<polygon fill="#fb8072" stroke="#000000" points="2560.8631,-198 2439.1369,-198 2439.1369,-162 2560.8631,-162 2560.8631,-198"/>
<text text-anchor="middle" x="2500" y="-175.8" font-family="Times,serif" font-size="14.00" fill="#000000">TemplatesModule </text>
</g>
<!-- SharedModule&#45;&gt;TemplatesModule  -->
<g id="edge35" class="edge">
<title>SharedModule&#45;&gt;TemplatesModule </title>
<path fill="none" stroke="#000000" stroke-dasharray="5,2" d="M2307.264,-116C2378.0212,-116 2500,-116 2500,-116 2500,-116 2500,-151.8314 2500,-151.8314"/>
<polygon fill="#000000" stroke="#000000" points="2496.5001,-151.8313 2500,-161.8314 2503.5001,-151.8314 2496.5001,-151.8313"/>
</g>
<!-- TotalPipe  -->
<g id="node39" class="node">
<title>TotalPipe </title>
<polygon fill="#fb8072" stroke="#000000" points="2420.9362,-198 2347.0638,-198 2347.0638,-162 2420.9362,-162 2420.9362,-198"/>
<text text-anchor="middle" x="2384" y="-175.8" font-family="Times,serif" font-size="14.00" fill="#000000">TotalPipe </text>
</g>
<!-- SharedModule&#45;&gt;TotalPipe  -->
<g id="edge36" class="edge">
<title>SharedModule&#45;&gt;TotalPipe </title>
<path fill="none" stroke="#000000" stroke-dasharray="5,2" d="M2307.4369,-119C2342.7365,-119 2384,-119 2384,-119 2384,-119 2384,-151.698 2384,-151.698"/>
<polygon fill="#000000" stroke="#000000" points="2380.5001,-151.698 2384,-161.698 2387.5001,-151.698 2380.5001,-151.698"/>
</g>
<!-- PageLoginComponent -->
<g id="node16" class="node">
<title>PageLoginComponent</title>
<polygon fill="#ffffb3" stroke="#000000" points="983.9874,-122 842.0126,-122 842.0126,-86 983.9874,-86 983.9874,-122"/>
<text text-anchor="middle" x="913" y="-99.8" font-family="Times,serif" font-size="14.00" fill="#000000">PageLoginComponent</text>
</g>
<!-- PageLoginComponent&#45;&gt;LoginModule -->
<g id="edge14" class="edge">
<title>PageLoginComponent&#45;&gt;LoginModule</title>
<path fill="none" stroke="#000000" d="M854.3629,-122.1467C854.3629,-135.7395 854.3629,-152 854.3629,-152 854.3629,-152 573.3873,-152 573.3873,-152 573.3873,-152 573.3873,-152.9793 573.3873,-152.9793"/>
<polygon fill="#000000" stroke="#000000" points="569.8874,-151.793 573.3873,-161.793 576.8874,-151.7931 569.8874,-151.793"/>
</g>
<!-- LoginRoutingModule -->
<g id="node17" class="node">
<title>LoginRoutingModule</title>
<polygon fill="#8dd3c7" stroke="#000000" points="818.1108,-122 815.1108,-126 794.1108,-126 791.1108,-122 679.8892,-122 679.8892,-86 818.1108,-86 818.1108,-122"/>
<text text-anchor="middle" x="749" y="-99.8" font-family="Times,serif" font-size="14.00" fill="#000000">LoginRoutingModule</text>
</g>
<!-- LoginRoutingModule&#45;&gt;LoginModule -->
<g id="edge15" class="edge">
<title>LoginRoutingModule&#45;&gt;LoginModule</title>
<path fill="none" stroke="#000000" d="M708.6659,-122.1097C708.6659,-131.897 708.6659,-142 708.6659,-142 708.6659,-142 556.2781,-142 556.2781,-142 556.2781,-142 556.2781,-151.8903 556.2781,-151.8903"/>
<polygon fill="#000000" stroke="#000000" points="552.7781,-151.8903 556.2781,-161.8903 559.7781,-151.8904 552.7781,-151.8903"/>
</g>
<!-- PageNotFoundComponent -->
<g id="node18" class="node">
<title>PageNotFoundComponent</title>
<polygon fill="#ffffb3" stroke="#000000" points="5587.8243,-122 5422.1757,-122 5422.1757,-86 5587.8243,-86 5587.8243,-122"/>
<text text-anchor="middle" x="5505" y="-99.8" font-family="Times,serif" font-size="14.00" fill="#000000">PageNotFoundComponent</text>
</g>
<!-- PageNotFoundModule -->
<g id="node19" class="node">
<title>PageNotFoundModule</title>
<polygon fill="#8dd3c7" stroke="#000000" points="5475.5421,-198 5472.5421,-202 5451.5421,-202 5448.5421,-198 5332.4579,-198 5332.4579,-162 5475.5421,-162 5475.5421,-198"/>
<text text-anchor="middle" x="5404" y="-175.8" font-family="Times,serif" font-size="14.00" fill="#000000">PageNotFoundModule</text>
</g>
<!-- PageNotFoundComponent&#45;&gt;PageNotFoundModule -->
<g id="edge16" class="edge">
<title>PageNotFoundComponent&#45;&gt;PageNotFoundModule</title>
<path fill="none" stroke="#000000" d="M5449.0544,-122.0109C5449.0544,-122.0109 5449.0544,-151.855 5449.0544,-151.855"/>
<polygon fill="#000000" stroke="#000000" points="5445.5544,-151.8549 5449.0544,-161.855 5452.5544,-151.855 5445.5544,-151.8549"/>
</g>
<!-- PageNotFoundRoutingModule -->
<g id="node20" class="node">
<title>PageNotFoundRoutingModule</title>
<polygon fill="#8dd3c7" stroke="#000000" points="5398.1595,-122 5395.1595,-126 5374.1595,-126 5371.1595,-122 5209.8405,-122 5209.8405,-86 5398.1595,-86 5398.1595,-122"/>
<text text-anchor="middle" x="5304" y="-99.8" font-family="Times,serif" font-size="14.00" fill="#000000">PageNotFoundRoutingModule</text>
</g>
<!-- PageNotFoundRoutingModule&#45;&gt;PageNotFoundModule -->
<g id="edge17" class="edge">
<title>PageNotFoundRoutingModule&#45;&gt;PageNotFoundModule</title>
<path fill="none" stroke="#000000" d="M5365.2795,-122.0109C5365.2795,-122.0109 5365.2795,-151.855 5365.2795,-151.855"/>
<polygon fill="#000000" stroke="#000000" points="5361.7795,-151.8549 5365.2795,-161.855 5368.7795,-151.855 5361.7795,-151.8549"/>
</g>
<!-- AddPrestationComponent -->
<g id="node21" class="node">
<title>AddPrestationComponent</title>
<polygon fill="#ffffb3" stroke="#000000" points="5169.9284,-122 5008.0716,-122 5008.0716,-86 5169.9284,-86 5169.9284,-122"/>
<text text-anchor="middle" x="5089" y="-99.8" font-family="Times,serif" font-size="14.00" fill="#000000">AddPrestationComponent</text>
</g>
<!-- AddPrestationComponent&#45;&gt;PrestationsModule -->
<g id="edge18" class="edge">
<title>AddPrestationComponent&#45;&gt;PrestationsModule</title>
<path fill="none" stroke="#000000" d="M5089,-122.0265C5089,-147.5093 5089,-191 5089,-191 5089,-191 4362.5587,-191 4362.5587,-191"/>
<polygon fill="#000000" stroke="#000000" points="4362.5587,-187.5001 4352.5587,-191 4362.5587,-194.5001 4362.5587,-187.5001"/>
</g>
<!-- FormPrestationComponent -->
<g id="node22" class="node">
<title>FormPrestationComponent</title>
<polygon fill="#ffffb3" stroke="#000000" points="4989.6554,-122 4822.3446,-122 4822.3446,-86 4989.6554,-86 4989.6554,-122"/>
<text text-anchor="middle" x="4906" y="-99.8" font-family="Times,serif" font-size="14.00" fill="#000000">FormPrestationComponent</text>
</g>
<!-- FormPrestationComponent&#45;&gt;PrestationsModule -->
<g id="edge19" class="edge">
<title>FormPrestationComponent&#45;&gt;PrestationsModule</title>
<path fill="none" stroke="#000000" d="M4906,-122.1532C4906,-145.7566 4906,-184 4906,-184 4906,-184 4362.5531,-184 4362.5531,-184"/>
<polygon fill="#000000" stroke="#000000" points="4362.5531,-180.5001 4352.5531,-184 4362.553,-187.5001 4362.5531,-180.5001"/>
</g>
<!-- FormReactivePrestationComponent -->
<g id="node23" class="node">
<title>FormReactivePrestationComponent</title>
<polygon fill="#ffffb3" stroke="#000000" points="4804.1315,-122 4587.8685,-122 4587.8685,-86 4804.1315,-86 4804.1315,-122"/>
<text text-anchor="middle" x="4696" y="-99.8" font-family="Times,serif" font-size="14.00" fill="#000000">FormReactivePrestationComponent</text>
</g>
<!-- FormReactivePrestationComponent&#45;&gt;PrestationsModule -->
<g id="edge20" class="edge">
<title>FormReactivePrestationComponent&#45;&gt;PrestationsModule</title>
<path fill="none" stroke="#000000" d="M4696,-122.0449C4696,-143.6623 4696,-177 4696,-177 4696,-177 4362.9203,-177 4362.9203,-177"/>
<polygon fill="#000000" stroke="#000000" points="4362.9203,-173.5001 4352.9203,-177 4362.9203,-180.5001 4362.9203,-173.5001"/>
</g>
<!-- ListPrestationsComponent -->
<g id="node24" class="node">
<title>ListPrestationsComponent</title>
<polygon fill="#ffffb3" stroke="#000000" points="4569.0448,-122 4404.9552,-122 4404.9552,-86 4569.0448,-86 4569.0448,-122"/>
<text text-anchor="middle" x="4487" y="-99.8" font-family="Times,serif" font-size="14.00" fill="#000000">ListPrestationsComponent</text>
</g>
<!-- ListPrestationsComponent&#45;&gt;PrestationsModule -->
<g id="edge21" class="edge">
<title>ListPrestationsComponent&#45;&gt;PrestationsModule</title>
<path fill="none" stroke="#000000" d="M4487,-122.0348C4487,-141.5762 4487,-170 4487,-170 4487,-170 4362.6303,-170 4362.6303,-170"/>
<polygon fill="#000000" stroke="#000000" points="4362.6303,-166.5001 4352.6303,-170 4362.6303,-173.5001 4362.6303,-166.5001"/>
</g>
<!-- PageAddPrestationComponent -->
<g id="node25" class="node">
<title>PageAddPrestationComponent</title>
<polygon fill="#ffffb3" stroke="#000000" points="4386.1399,-122 4197.8601,-122 4197.8601,-86 4386.1399,-86 4386.1399,-122"/>
<text text-anchor="middle" x="4292" y="-99.8" font-family="Times,serif" font-size="14.00" fill="#000000">PageAddPrestationComponent</text>
</g>
<!-- PageAddPrestationComponent&#45;&gt;PrestationsModule -->
<g id="edge22" class="edge">
<title>PageAddPrestationComponent&#45;&gt;PrestationsModule</title>
<path fill="none" stroke="#000000" d="M4292,-122.0109C4292,-122.0109 4292,-151.855 4292,-151.855"/>
<polygon fill="#000000" stroke="#000000" points="4288.5001,-151.8549 4292,-161.855 4295.5001,-151.855 4288.5001,-151.8549"/>
</g>
<!-- PagePrestationsComponent -->
<g id="node26" class="node">
<title>PagePrestationsComponent</title>
<polygon fill="#ffffb3" stroke="#000000" points="4179.9776,-122 4010.0224,-122 4010.0224,-86 4179.9776,-86 4179.9776,-122"/>
<text text-anchor="middle" x="4095" y="-99.8" font-family="Times,serif" font-size="14.00" fill="#000000">PagePrestationsComponent</text>
</g>
<!-- PagePrestationsComponent&#45;&gt;PrestationsModule -->
<g id="edge23" class="edge">
<title>PagePrestationsComponent&#45;&gt;PrestationsModule</title>
<path fill="none" stroke="#000000" d="M4095,-122.0348C4095,-141.5762 4095,-170 4095,-170 4095,-170 4221.286,-170 4221.286,-170"/>
<polygon fill="#000000" stroke="#000000" points="4221.2861,-173.5001 4231.286,-170 4221.286,-166.5001 4221.2861,-173.5001"/>
</g>
<!-- PrestationComponent -->
<g id="node27" class="node">
<title>PrestationComponent</title>
<polygon fill="#ffffb3" stroke="#000000" points="3991.8216,-122 3854.1784,-122 3854.1784,-86 3991.8216,-86 3991.8216,-122"/>
<text text-anchor="middle" x="3923" y="-99.8" font-family="Times,serif" font-size="14.00" fill="#000000">PrestationComponent</text>
</g>
<!-- PrestationComponent&#45;&gt;PrestationsModule -->
<g id="edge24" class="edge">
<title>PrestationComponent&#45;&gt;PrestationsModule</title>
<path fill="none" stroke="#000000" d="M3923,-122.0449C3923,-143.6623 3923,-177 3923,-177 3923,-177 4221.4804,-177 4221.4804,-177"/>
<polygon fill="#000000" stroke="#000000" points="4221.4804,-180.5001 4231.4804,-177 4221.4803,-173.5001 4221.4804,-180.5001"/>
</g>
<!-- PrestationsRoutingModule -->
<g id="node29" class="node">
<title>PrestationsRoutingModule</title>
<polygon fill="#8dd3c7" stroke="#000000" points="3830.101,-122 3827.101,-126 3806.101,-126 3803.101,-122 3663.899,-122 3663.899,-86 3830.101,-86 3830.101,-122"/>
<text text-anchor="middle" x="3747" y="-99.8" font-family="Times,serif" font-size="14.00" fill="#000000">PrestationsRoutingModule</text>
</g>
<!-- PrestationsRoutingModule&#45;&gt;PrestationsModule -->
<g id="edge25" class="edge">
<title>PrestationsRoutingModule&#45;&gt;PrestationsModule</title>
<path fill="none" stroke="#000000" d="M3747,-122.1532C3747,-145.7566 3747,-184 3747,-184 3747,-184 4221.3308,-184 4221.3308,-184"/>
<polygon fill="#000000" stroke="#000000" points="4221.3308,-187.5001 4231.3308,-184 4221.3307,-180.5001 4221.3308,-187.5001"/>
</g>
<!-- AddRowComponent -->
<g id="node30" class="node">
<title>AddRowComponent</title>
<polygon fill="#ffffb3" stroke="#000000" points="3623.8823,-198 3492.1177,-198 3492.1177,-162 3623.8823,-162 3623.8823,-198"/>
<text text-anchor="middle" x="3558" y="-175.8" font-family="Times,serif" font-size="14.00" fill="#000000">AddRowComponent</text>
</g>
<!-- AddRowComponent&#45;&gt;SharedModule -->
<g id="edge27" class="edge">
<title>AddRowComponent&#45;&gt;SharedModule</title>
<path fill="none" stroke="#000000" d="M3558,-161.7663C3558,-135.9906 3558,-92 3558,-92 3558,-92 2317.3741,-92 2317.3741,-92"/>
<polygon fill="#000000" stroke="#000000" points="2317.3741,-88.5001 2307.3741,-92 2317.3741,-95.5001 2317.3741,-88.5001"/>
</g>
<!-- StateDirective -->
<g id="node31" class="node">
<title>StateDirective</title>
<polygon fill="#ffffb3" stroke="#000000" points="3474.0758,-198 3377.9242,-198 3377.9242,-162 3474.0758,-162 3474.0758,-198"/>
<text text-anchor="middle" x="3426" y="-175.8" font-family="Times,serif" font-size="14.00" fill="#000000">StateDirective</text>
</g>
<!-- StateDirective&#45;&gt;SharedModule -->
<g id="edge28" class="edge">
<title>StateDirective&#45;&gt;SharedModule</title>
<path fill="none" stroke="#000000" d="M3426,-161.9737C3426,-137.0227 3426,-95 3426,-95 3426,-95 2317.4415,-95 2317.4415,-95"/>
<polygon fill="#000000" stroke="#000000" points="2317.4415,-91.5001 2307.4415,-95 2317.4414,-98.5001 2317.4415,-91.5001"/>
</g>
<!-- TableauComponent -->
<g id="node32" class="node">
<title>TableauComponent</title>
<polygon fill="#ffffb3" stroke="#000000" points="3360.4201,-198 3233.5799,-198 3233.5799,-162 3360.4201,-162 3360.4201,-198"/>
<text text-anchor="middle" x="3297" y="-175.8" font-family="Times,serif" font-size="14.00" fill="#000000">TableauComponent</text>
</g>
<!-- TableauComponent&#45;&gt;SharedModule -->
<g id="edge29" class="edge">
<title>TableauComponent&#45;&gt;SharedModule</title>
<path fill="none" stroke="#000000" d="M3297,-161.8015C3297,-137.6437 3297,-98 3297,-98 3297,-98 2317.4142,-98 2317.4142,-98"/>
<polygon fill="#000000" stroke="#000000" points="2317.4142,-94.5001 2307.4142,-98 2317.4141,-101.5001 2317.4142,-94.5001"/>
</g>
<!-- TotalPipe -->
<g id="node33" class="node">
<title>TotalPipe</title>
<polygon fill="#ffffb3" stroke="#000000" points="3216.4376,-198 3145.5624,-198 3145.5624,-162 3216.4376,-162 3216.4376,-198"/>
<text text-anchor="middle" x="3181" y="-175.8" font-family="Times,serif" font-size="14.00" fill="#000000">TotalPipe</text>
</g>
<!-- TotalPipe&#45;&gt;SharedModule -->
<g id="edge30" class="edge">
<title>TotalPipe&#45;&gt;SharedModule</title>
<path fill="none" stroke="#000000" d="M3181,-161.6772C3181,-138.3398 3181,-101 3181,-101 3181,-101 2317.2982,-101 2317.2982,-101"/>
<polygon fill="#000000" stroke="#000000" points="2317.2982,-97.5001 2307.2982,-101 2317.2981,-104.5001 2317.2982,-97.5001"/>
</g>
<!-- TemplatesModule -->
<g id="node34" class="node">
<title>TemplatesModule</title>
<polygon fill="#8dd3c7" stroke="#000000" points="3121.8627,-198 3118.8627,-202 3097.8627,-202 3094.8627,-198 3004.1373,-198 3004.1373,-162 3121.8627,-162 3121.8627,-198"/>
<text text-anchor="middle" x="3063" y="-175.8" font-family="Times,serif" font-size="14.00" fill="#000000">TemplatesModule</text>
</g>
<!-- TemplatesModule&#45;&gt;SharedModule -->
<g id="edge31" class="edge">
<title>TemplatesModule&#45;&gt;SharedModule</title>
<path fill="none" stroke="#000000" d="M3063,-161.9891C3063,-139.5148 3063,-104 3063,-104 3063,-104 2317.4463,-104 2317.4463,-104"/>
<polygon fill="#000000" stroke="#000000" points="2317.4463,-100.5001 2307.4463,-104 2317.4463,-107.5001 2317.4463,-100.5001"/>
</g>
<!-- TemplateAComponent  -->
<g id="node42" class="node">
<title>TemplateAComponent </title>
<polygon fill="#fb8072" stroke="#000000" points="3051.8073,-274 2904.1927,-274 2904.1927,-238 3051.8073,-238 3051.8073,-274"/>
<text text-anchor="middle" x="2978" y="-251.8" font-family="Times,serif" font-size="14.00" fill="#000000">TemplateAComponent </text>
</g>
<!-- TemplatesModule&#45;&gt;TemplateAComponent  -->
<g id="edge39" class="edge">
<title>TemplatesModule&#45;&gt;TemplateAComponent </title>
<path fill="none" stroke="#000000" stroke-dasharray="5,2" d="M3035.9586,-198.0109C3035.9586,-198.0109 3035.9586,-227.855 3035.9586,-227.855"/>
<polygon fill="#000000" stroke="#000000" points="3032.4587,-227.8549 3035.9586,-237.855 3039.4587,-227.855 3032.4587,-227.8549"/>
</g>
<!-- TemplateBComponent  -->
<g id="node43" class="node">
<title>TemplateBComponent </title>
<polygon fill="#fb8072" stroke="#000000" points="2886.5372,-274 2739.4628,-274 2739.4628,-238 2886.5372,-238 2886.5372,-274"/>
<text text-anchor="middle" x="2813" y="-251.8" font-family="Times,serif" font-size="14.00" fill="#000000">TemplateBComponent </text>
</g>
<!-- TemplatesModule&#45;&gt;TemplateBComponent  -->
<g id="edge40" class="edge">
<title>TemplatesModule&#45;&gt;TemplateBComponent </title>
<path fill="none" stroke="#000000" stroke-dasharray="5,2" d="M3020.0137,-198.2434C3020.0137,-205.4297 3020.0137,-212 3020.0137,-212 3020.0137,-212 2865.4137,-212 2865.4137,-212 2865.4137,-212 2865.4137,-227.8495 2865.4137,-227.8495"/>
<polygon fill="#000000" stroke="#000000" points="2861.9138,-227.8494 2865.4137,-237.8495 2868.9138,-227.8495 2861.9138,-227.8494"/>
</g>
<!-- TemplateAComponent -->
<g id="node40" class="node">
<title>TemplateAComponent</title>
<polygon fill="#ffffb3" stroke="#000000" points="3382.3075,-274 3237.6925,-274 3237.6925,-238 3382.3075,-238 3382.3075,-274"/>
<text text-anchor="middle" x="3310" y="-251.8" font-family="Times,serif" font-size="14.00" fill="#000000">TemplateAComponent</text>
</g>
<!-- TemplateAComponent&#45;&gt;TemplatesModule -->
<g id="edge37" class="edge">
<title>TemplateAComponent&#45;&gt;TemplatesModule</title>
<path fill="none" stroke="#000000" d="M3299.0281,-237.9672C3299.0281,-231.1474 3299.0281,-225 3299.0281,-225 3299.0281,-225 3106.698,-225 3106.698,-225 3106.698,-225 3106.698,-208.0439 3106.698,-208.0439"/>
<polygon fill="#000000" stroke="#000000" points="3110.1981,-208.0439 3106.698,-198.0439 3103.1981,-208.044 3110.1981,-208.0439"/>
</g>
<!-- TemplateBComponent -->
<g id="node41" class="node">
<title>TemplateBComponent</title>
<polygon fill="#ffffb3" stroke="#000000" points="3219.5379,-274 3076.4621,-274 3076.4621,-238 3219.5379,-238 3219.5379,-274"/>
<text text-anchor="middle" x="3148" y="-251.8" font-family="Times,serif" font-size="14.00" fill="#000000">TemplateBComponent</text>
</g>
<!-- TemplateBComponent&#45;&gt;TemplatesModule -->
<g id="edge38" class="edge">
<title>TemplateBComponent&#45;&gt;TemplatesModule</title>
<path fill="none" stroke="#000000" d="M3091.4647,-237.9891C3091.4647,-237.9891 3091.4647,-208.145 3091.4647,-208.145"/>
<polygon fill="#000000" stroke="#000000" points="3094.9648,-208.145 3091.4647,-198.145 3087.9648,-208.1451 3094.9648,-208.145"/>
</g>
<!-- FooterComponent -->
<g id="node44" class="node">
<title>FooterComponent</title>
<polygon fill="#ffffb3" stroke="#000000" points="639.8809,-122 522.1191,-122 522.1191,-86 639.8809,-86 639.8809,-122"/>
<text text-anchor="middle" x="581" y="-99.8" font-family="Times,serif" font-size="14.00" fill="#000000">FooterComponent</text>
</g>
<!-- FooterComponent&#45;&gt;UiModule -->
<g id="edge41" class="edge">
<title>FooterComponent&#45;&gt;UiModule</title>
<path fill="none" stroke="#000000" d="M539.1688,-122.207C539.1688,-127.5549 539.1688,-132 539.1688,-132 539.1688,-132 455.2578,-132 455.2578,-132 455.2578,-132 455.2578,-151.8533 455.2578,-151.8533"/>
<polygon fill="#000000" stroke="#000000" points="451.7579,-151.8532 455.2578,-161.8533 458.7579,-151.8533 451.7579,-151.8532"/>
</g>
<!-- HeaderComponent -->
<g id="node45" class="node">
<title>HeaderComponent</title>
<polygon fill="#ffffb3" stroke="#000000" points="503.7437,-122 382.2563,-122 382.2563,-86 503.7437,-86 503.7437,-122"/>
<text text-anchor="middle" x="443" y="-99.8" font-family="Times,serif" font-size="14.00" fill="#000000">HeaderComponent</text>
</g>
<!-- HeaderComponent&#45;&gt;UiModule -->
<g id="edge42" class="edge">
<title>HeaderComponent&#45;&gt;UiModule</title>
<path fill="none" stroke="#000000" d="M430.7422,-122.0109C430.7422,-122.0109 430.7422,-151.855 430.7422,-151.855"/>
<polygon fill="#000000" stroke="#000000" points="427.2423,-151.8549 430.7422,-161.855 434.2423,-151.855 427.2423,-151.8549"/>
</g>
<!-- NavComponent -->
<g id="node46" class="node">
<title>NavComponent</title>
<polygon fill="#ffffb3" stroke="#000000" points="364.1542,-122 259.8458,-122 259.8458,-86 364.1542,-86 364.1542,-122"/>
<text text-anchor="middle" x="312" y="-99.8" font-family="Times,serif" font-size="14.00" fill="#000000">NavComponent</text>
</g>
<!-- NavComponent&#45;&gt;UiModule -->
<g id="edge43" class="edge">
<title>NavComponent&#45;&gt;UiModule</title>
<path fill="none" stroke="#000000" d="M312,-122.308C312,-142.1455 312,-171 312,-171 312,-171 396.1606,-171 396.1606,-171"/>
<polygon fill="#000000" stroke="#000000" points="396.1606,-174.5001 406.1606,-171 396.1605,-167.5001 396.1606,-174.5001"/>
</g>
<!-- UiComponent -->
<g id="node47" class="node">
<title>UiComponent</title>
<polygon fill="#ffffb3" stroke="#000000" points="241.8302,-122 146.1698,-122 146.1698,-86 241.8302,-86 241.8302,-122"/>
<text text-anchor="middle" x="194" y="-99.8" font-family="Times,serif" font-size="14.00" fill="#000000">UiComponent</text>
</g>
<!-- UiComponent&#45;&gt;UiModule -->
<g id="edge44" class="edge">
<title>UiComponent&#45;&gt;UiModule</title>
<path fill="none" stroke="#000000" d="M194,-122.0109C194,-144.4852 194,-180 194,-180 194,-180 396.2592,-180 396.2592,-180"/>
<polygon fill="#000000" stroke="#000000" points="396.2592,-183.5001 406.2592,-180 396.2592,-176.5001 396.2592,-183.5001"/>
</g>
</g>
</svg>
